<?xml version="1.0" encoding="UTF-8" standalone="yes"?>
<svg width="200px" height="200px" viewBox="0 0 200 200" version="1.2" baseProfile="tiny-ps" xmlns="http://www.w3.org/2000/svg">
  <title>bimi-svg-tiny-12-ps</title>
  <g id="surface1">
    <path d="M 91.320312 46.238281 C 86.398438 49.460938 72.410156 57.929688 60.234375 65.1875 C 28.238281 84.273438 23.316406 87.5 23.316406 88.574219 C 23.316406 89.113281 27.589844 92.070312 32.640625 95.027344 C 40.671875 99.730469 54.015625 107.796875 68.652344 116.667969 C 71.761719 118.546875 72.539062 118.28125 83.550781 111.558594 C 90.027344 107.660156 103.886719 99.328125 114.378906 93.011719 L 133.679688 81.453125 L 139.378906 84.675781 C 142.488281 86.558594 144.558594 88.441406 144.042969 88.84375 C 143.523438 89.382812 139.25 92.203125 134.457031 95.027344 C 98.316406 116.53125 85.621094 124.460938 85.492188 125.671875 C 85.492188 126.34375 89.378906 129.300781 94.042969 131.988281 C 103.886719 137.902344 101.296875 138.574219 124.351562 124.460938 C 151.425781 107.796875 169.171875 97.042969 175.777344 93.28125 C 179.535156 91.128906 182.640625 88.976562 182.640625 88.441406 C 182.640625 88.039062 174.351562 82.660156 164.25 76.613281 C 154.015625 70.566406 143.523438 64.113281 140.933594 62.367188 C 138.210938 60.617188 135.105469 59.140625 133.9375 59.140625 C 132.773438 59.140625 127.074219 62.097656 121.242188 65.589844 C 107.382812 74.195312 87.953125 85.886719 79.015625 91.128906 L 71.761719 95.296875 L 66.191406 91.933594 C 63.210938 90.054688 60.878906 88.304688 61.140625 88.039062 C 61.527344 87.632812 101.8125 63.304688 115.027344 55.511719 C 118.003906 53.628906 120.464844 51.746094 120.464844 51.210938 C 120.464844 49.597656 104.921875 40.324219 102.460938 40.457031 C 101.296875 40.457031 96.375 43.011719 91.320312 46.238281 Z M 91.320312 46.238281 " stroke="none" fill-rule="nonzero" fill="rgb(0%,0%,0%)" fill-opacity="1"/>
    <path d="M 24.613281 113.976562 C 24.613281 123.789062 24.742188 124.460938 28.238281 126.476562 C 32.253906 128.898438 70.207031 151.882812 73.574219 153.898438 C 74.742188 154.703125 81.867188 158.871094 89.25 163.171875 L 102.71875 171.238281 L 108.550781 167.875 C 111.917969 166.128906 118.132812 162.5 122.410156 159.8125 C 126.683594 157.257812 137.433594 150.671875 146.375 145.160156 C 155.3125 139.785156 166.710938 132.796875 171.632812 129.703125 L 180.699219 124.195312 L 181.089844 114.382812 C 181.476562 104.703125 181.476562 104.570312 178.496094 105.644531 C 176.8125 106.183594 170.335938 109.8125 163.859375 113.976562 C 150.257812 122.582031 111.011719 146.101562 105.957031 148.789062 C 102.589844 150.539062 101.8125 150.269531 92.617188 144.625 C 87.304688 141.261719 82.640625 138.441406 82.253906 138.441406 C 81.605469 138.441406 72.667969 132.929688 65.285156 127.957031 C 63.988281 127.152344 62.046875 125.941406 61.011719 125.402344 C 59.972656 124.867188 51.296875 119.890625 41.839844 114.113281 L 24.613281 103.628906 Z M 24.613281 113.976562 " stroke="none" fill-rule="nonzero" fill="rgb(0%,0%,0%)" fill-opacity="1"/>
  </g>
</svg>