<svg xmlns="http://www.w3.org/2000/svg" xml:space="preserve" viewBox="0 0 137 137"><path fill="#FCFCFC" d="M1 123c0-35.354 0-70.708.284-106.244C6.523 10.374 12.508 5.521 19.893 2.462c.203-.084.079-.957.107-1.462 31.354 0 62.708 0 94.237.318.493.7.74 1.307 1.14 1.435 9.419 2.993 16.03 9.172 20.561 17.816.345.657 1.36.962 2.062 1.431 0 31.354 0 62.708-.305 94.24-.752.623-1.405.988-1.618 1.526-3.508 8.876-10.062 14.573-18.68 18.22-.636.268-.94 1.324-1.397 2.014-31.354 0-62.708 0-94.237-.318-4.863-3.136-9.655-5.799-14.197-8.836C5.153 127.233 3.174 124.97 1 123m14.042-51.734c-.436.211-.871.423-1.5 1.565-.015 3.162-.406 6.384.092 9.463.315 1.95 1.492 4.46 3.07 5.401a2472.584 2472.584 0 0 0 49.619 28.828c1.622.917 4.626 1.018 6.211.122 16.798-9.492 33.456-19.233 50.084-29.02 1.257-.74 2.735-2.291 2.845-3.574.36-4.21.135-8.472.135-13.588-2.754 1.545-4.745 2.624-6.7 3.764-14.516 8.466-29.117 16.79-43.476 25.513-4.213 2.559-7.366 2.672-11.685.074-15.957-9.6-32.189-18.745-48.695-28.548M79.37 88.813l47.733-27.854c-11.601-6.729-22.32-13.09-33.232-19.1-1.424-.784-4.174-.364-5.742.513-11.625 6.499-23.354 12.873-34.53 20.093-5.512 3.561-9.277 2.41-13.74-1.747l43.274-25.147c-3.74-2.229-6.963-3.926-9.932-5.99-2.526-1.755-4.542-1.687-7.213-.08-10.702 6.439-21.562 12.615-32.362 18.89-6.984 4.06-13.965 8.123-21.637 12.587C23.793 67.86 34.907 74.455 46.19 80.742c1.1.613 3.456-.308 4.886-1.121 11.439-6.505 22.783-13.176 34.18-19.753 6.945-4.007 6.965-3.973 13.914 1.394L56.016 86.43c1.834 1.149 3.21 1.774 4.296 2.73 6.168 5.43 12.275 5.562 19.058-.348z"/><path d="M138 21.531c-.703 0-1.717-.305-2.062-.962-4.53-8.644-11.142-14.823-20.56-17.816-.4-.128-.648-.735-.672-1.435C122.589 1 130.179 1 138 1v20.531zM116.469 138c-.011-.69.292-1.746.928-2.015 8.618-3.646 15.172-9.343 18.68-18.219.213-.538.866-.903 1.618-1.057.305 7.219.305 14.147.305 21.291h-21.531zM1 123.473c2.174 1.497 4.153 3.76 6.566 5.373 4.542 3.037 9.334 5.7 13.728 8.836C14.42 138 7.84 138 1 138v-14.527zM19.53 1c.442.505.566 1.378.363 1.462-7.385 3.06-13.37 7.912-18.61 13.825C1 11.065 1 6.131 1 1h18.53z"/><path fill="#0A0A0A" d="M79.048 88.99c-6.461 5.733-12.568 5.602-18.736.171-1.085-.956-2.462-1.581-4.296-2.73l43.155-25.17c-6.949-5.366-6.969-5.4-13.913-1.393C73.86 66.445 62.516 73.116 51.077 79.62c-1.43.813-3.786 1.734-4.886 1.121-11.284-6.287-22.398-12.88-34.202-19.764 7.672-4.464 14.653-8.528 21.637-12.586 10.8-6.276 21.66-12.452 32.362-18.89 2.671-1.608 4.687-1.676 7.213.08 2.969 2.063 6.193 3.76 9.932 5.989L39.859 60.718c4.463 4.157 8.228 5.308 13.74 1.747 11.176-7.22 22.905-13.594 34.53-20.093 1.568-.877 4.318-1.297 5.742-.514 10.912 6.011 21.63 12.372 33.232 19.101-16.282 9.501-32.007 18.678-48.055 28.031z"/><path fill="#696B6A" d="M15.42 71.753c16.128 9.316 32.36 18.46 48.317 28.06 4.319 2.599 7.472 2.486 11.685-.073 14.36-8.722 28.96-17.047 43.475-25.513 1.956-1.14 3.947-2.22 6.701-3.764 0 5.116.224 9.377-.135 13.588-.11 1.283-1.588 2.835-2.845 3.574-16.628 9.787-33.286 19.528-50.084 29.02-1.585.896-4.59.795-6.211-.122a2472.584 2472.584 0 0 1-49.62-28.828c-1.577-.94-2.754-3.45-3.07-5.401-.497-3.079-.106-6.301.43-9.942.798-.52 1.077-.56 1.357-.6z"/><path fill="#818282" d="M15.23 71.51c-.09.283-.369.323-1.071.377.012-.198.447-.41 1.072-.378z"/></svg>